<?xml version="1.0" encoding="UTF-8"?>
<svg id="Layer_2" data-name="Layer 2" xmlns="http://www.w3.org/2000/svg" viewBox="0 0 1091.19 1133.86">
  <defs>
    <style>
      .cls-1 {
        fill: #000;
      }

      .cls-1, .cls-2, .cls-3 {
        stroke-width: 0px;
      }

      .cls-2, .cls-3 {
        fill: #1c1c1c;
      }

      .cls-3 {
        fill-rule: evenodd;
      }
    </style>
  </defs>
  <g id="Layer_1-2" data-name="Layer 1">
    <g>
      <g>
        <path class="cls-1" d="M302.09,1076.75l-.07,1.28h-13.15c-1.82,0-2.59.03-2.59.03l.3-.57c.67-1.25.84-1.51.84-11.61s-.13-9.92-.84-11.27l-.3-.57s.74.03,2.56.03h12.85s-.03.74-.03,2.39c0,1.75.07,2.59.07,2.66-.03-.03-.24-.34-1.18-.91-.81-.47-2.12-.74-3.7-.74h-3.57v6.83h2.76c1.58,0,2.89-.17,3.7-.64.87-.5,1.14-.81,1.21-.87,0,.03-.1.98-.1,3.26,0,2.12.1,3.13.1,3.19-.03-.03-.27-.34-1.21-.91-.81-.47-2.12-.64-3.7-.64h-2.76v6.93h3.23c4.17,0,4.71-.97,5.95-2.79,0,0-.17,1.35-.37,4.91Z"/>
        <path class="cls-1" d="M316.25,1078.26c-4.34,0-6.46-1.01-6.46-1.01,0,0,.07-.77.07-2.62,0-2.02-.07-3.26-.07-3.26,1.18,1.72,2.79,3.36,6.05,3.36,2.25,0,4.07-.5,4.07-2.66,0-1.68-1.08-2.29-2.69-3.16l-2.76-1.55c-2.62-1.45-4.71-3.26-4.71-6.73,0-4.54,2.99-6.79,8.61-6.79,4,0,6.09.97,6.09.97,0,0-.07.81-.07,2.72s.07,3.09.07,3.09c-1.35-1.95-3.03-3.3-5.69-3.3-2.19,0-3.6.61-3.6,2.35,0,1.58,1.14,2.12,2.96,3.13l2.39,1.31c2.93,1.58,4.84,3.33,4.84,7.03,0,5.55-4,7.1-9.12,7.1Z"/>
        <path class="cls-1" d="M350.83,1059.19s-.24-.37-1.18-.94c-.81-.47-2.09-.84-3.67-.84h-1.82v8.81c0,9.79.13,9.92.84,11.27l.3.57s-1.21-.07-4.07-.07-4.1.07-4.1.07l.3-.57c.67-1.28.84-1.51.84-11.61v-8.48h-1.82c-1.58,0-2.86.37-3.67.84-.87.54-1.14.87-1.18.94,0-.03.07-.97.07-2.72,0-1.65-.03-2.39-.03-2.39h19.14s-.03.74-.03,2.39c0,1.75.07,2.66.07,2.72Z"/>
        <path class="cls-1" d="M365.79,1078.09c-1.35,0-3.9-.1-5.01-.1-2.09,0-3.26.07-3.26.07l.3-.57c.67-1.25.84-1.51.84-11.61s-.13-9.92-.84-11.27l-.3-.57s1.18.07,3.2.07c1.35,0,3.8-.1,5.25-.1,5.38,0,13.69.37,13.69,11.64,0,12.14-8.51,12.45-13.86,12.45ZM366.33,1057.27c-1.08,0-1.78.1-1.78.1v17.36s.61.07,1.82.07c4.91,0,7.06-2.89,7.06-8.81s-2.09-8.71-7.1-8.71Z"/>
      </g>
      <g>
        <path class="cls-2" d="M693.92,350.01s113.43,102.71,66.59,186.79c0,0,73.93-82.39-66.59-186.79Z"/>
        <path class="cls-2" d="M532.76,455.98c-3.27-3.27-5.48-5.48-7.09-7.09l-26.6,25.35s36.65,18.63,77.4,48.04c2.54,1.9,5.14,3.82,7.82,5.74,4.75,3.55,9.52,7.23,14.27,11.04,48.53,38.94,225.73,36.68,225.73,36.68,0,0-71.13-.29-132.14-22.01,1.2-.33,2.39-.64,3.6-1,63.88-19.39,72.88-91.34-56.16-212.43l-37.09,35.35c5.4,8.91,9.17,22.14-3.51,34.83-21.88,21.89-55.29,56.44-66.23,45.5Z"/>
        <path class="cls-2" d="M1038.67,499.41c-7.66-5.07-12.82-13.17-14.1-22.26-.02-.16-.05-.32-.07-.48-4.45-31.39,34.2-49.89,55.63-26.53,4.76,5.19,7.32,9.7,7.32,9.7l-17.82-66.49-59.62-19.95c-8.68-2.9-15.73-9.35-19.34-17.76-.06-.14-.12-.27-.17-.41-12.53-29.18,20.07-57.23,46.82-40.12,5.87,3.75,9.47,7.4,9.47,7.4l-34.42-59.62-62.91-3.85c-9.14-.56-17.62-4.96-23.28-12.15-.11-.14-.22-.28-.34-.43-19.35-24.55,3.93-60.01,33.9-51.13,7.29,2.16,12.23,5.06,12.23,5.06l-48.68-48.68-61.76,12.57c-8.99,1.83-18.34-.24-25.67-5.74-.14-.11-.29-.22-.43-.33-25-18.73-11.67-58.96,19.55-58.14,7.6.2,13.11,1.72,13.11,1.72l-59.62-34.42-56.28,28.07c-8.21,4.09-17.77,4.52-26.28,1.1-.15-.06-.31-.12-.46-.18-28.99-11.63-26.55-54.01,3.84-61.21,7.31-1.74,12.95-1.7,12.95-1.7l-66.49-17.82-47.17,41.74c-6.85,6.06-15.95,8.95-25.03,7.87-.16-.02-.32-.04-.49-.06-31.54-3.72-39.51-45.92-11.35-60.61,6.25-3.26,11.28-4.57,11.28-4.57h-68.84l-34.76,52.52c-5.07,7.66-13.17,12.82-22.26,14.1-.16.02-.32.05-.48.07-31.39,4.45-49.89-34.2-26.53-55.63,5.19-4.76,9.7-7.32,9.7-7.32l-66.49,17.82-19.95,59.62c-2.9,8.68-9.35,15.73-17.76,19.34-.14.06-.27.12-.41.17-29.18,12.53-57.23-20.07-40.12-46.82,3.76-5.88,7.4-9.47,7.4-9.47l-59.62,34.42-3.85,62.91c-.56,9.13-4.96,17.62-12.15,23.28-.14.11-.29.22-.43.33-24.55,19.35-60.01-3.93-51.14-33.9,2.16-7.29,5.06-12.23,5.06-12.23l-48.68,48.68,12.57,61.76c1.83,8.98-.24,18.34-5.74,25.67-.11.14-.22.29-.32.43-18.73,25-58.96,11.67-58.14-19.55.2-7.59,1.72-13.11,1.72-13.11l-34.42,59.62,28.07,56.29c4.09,8.21,4.52,17.77,1.09,26.28-.06.15-.12.31-.18.46-11.63,28.99-54.01,26.55-61.21-3.84-1.73-7.31-1.69-12.95-1.69-12.95l-17.82,66.49,41.74,47.17c6.06,6.85,8.95,15.95,7.87,25.04-.02.16-.04.32-.06.49-3.72,31.54-45.92,39.51-60.61,11.35-3.26-6.25-4.57-11.28-4.57-11.28v68.84l52.52,34.76c6.86,4.54,11.54,11.56,13.4,19.5h20.88c-.37-9.21,2.13-39.54,51.66-39.54v-28.41s-47.61-44.54-36.86-72.18c10.75-27.64,49.91-29.18,67.57-29.18s63.73,9.98,63.73,40.7-44.54,59.89-44.54,59.89v24.57s51.45-1.54,100.59-29.18c49.14-27.64,104.43-74.48,164.33-72.95l43.19-38.97-13.83-13.83-17.44,15.5c-5.61,4.98-14.2,4.48-19.18-1.13l-9.69-10.91c-4.98-5.61-4.48-14.2,1.13-19.18l48.43-43.03c5.61-4.98,14.2-4.48,19.18,1.13l9.69,10.91c4.98,5.61,4.48,14.2-1.13,19.18l-17.92,15.93,12.28,15.07,8.64-8.06,16.13,13.24,7.61-6.96,234.68-223.69,10.48,11-117.76,112.25c40.71-27.36,109.64-65.11,141.43-32.54,0,0-63.35,20.16-66.23,42.62-2.88,22.46,35.13,59.9,61.62,89.27,26.49,29.37,12.09,102.51,34.55,120.94,22.46,18.43,34.55,16.7,34.55,43.19h86.96c26.21,0,41.89,17.93,43.46,34.36h21.93c-.32-2.54-.42-5.12-.11-7.72.02-.16.04-.33.06-.49,3.72-31.54,45.92-39.51,60.61-11.35,3.26,6.26,4.57,11.28,4.57,11.28v-68.84l-52.52-34.76ZM283.17,519.6c-1.82,1.27-2.9,1.97-2.9,1.97.99-.66,1.93-1.31,2.9-1.97,14.7-10.22,81.19-59.88,81.19-121.62,0-69.41-67.15-74.49-90.86-63.77-23.7,10.72-33.3,27.09-33.3,59.25s57.03,60.52,82.39,8.62c0,0-7.34,49.37-68.28,34.13-60.95-15.24-37.25-124.01,36.82-124.86,73.62-.84,151.66,100.49-7.96,208.25Z"/>
      </g>
      <g>
        <path class="cls-2" d="M566.2,1061.03c-.16-.16-.33-.32-.49-.43-.05-.05-.11-.11-.16-.11v1.03l1.3.05c-.22-.22-.43-.38-.65-.54ZM525.42,1060.6c-.16.16-.27.27-.43.43-.22.16-.43.33-.65.54l1.19-.11c-.11-.27-.05-.54,0-.81v-.16l-.11.11ZM561.7,1091.56c-.05.05-.16.11-.22.16.16.22.38.43.6.6l-.38-.76Z"/>
        <g>
          <path class="cls-3" d="M501.47,1026.78c1.17,1.08,2.26,2.17,3.33,3.34.01.02.03.03.04.05.02.01.03.03.04.04.74.83,1.46,1.69,2.18,2.55.7.79,1.4,1.48,2.15,2.22.2.2,2.31,2.12,2,2.5-.34.28-2.41-1.65-2.62-1.83-.8-.7-1.6-1.43-2.31-2.22-.73-.83-1.46-1.66-2.2-2.49-.01-.01-.03-.03-.04-.05-.02-.01-.03-.03-.04-.04-1.05-1.16-2.09-2.25-3.2-3.35-.55-.55-1.04-1.09-1.52-1.69-.01-.01-.03-.03-.04-.05-.46.6-.91,1.22-.89,1.31.08.34,1.09,1.35,1.09,1.35.03.03.05.05.07.07.92.98,16.03,17.05,33.08,33.7l9.2-9.38c-1.95-2.01-3.86-4.05-5.75-6.08-.31-.33-5.61-5.84-5.41-6.23.34-.34,5.82,5.34,6.07,5.6,1.95,1.99,3.87,3.99,5.82,5.96l1.17-1.2c-5.57-5.93-11-12.23-16.4-18.97-5.67-7.07-9.2-11.13-11.56-13.52-2-2.03-3.1-2.83-3.94-3.25-.24.13-.61.34-1.11.65.16.09.31.19.48.3.29.2.55.41.82.63,1.27,1.05,2.62,2.13,3.82,3.26.01,0,.02.02.03.03.01,0,.02.02.03.03,1.17,1.11,2.22,2.43,3.14,3.74.56.81,1.24,1.79,1.68,2.67h0c.05.11.11.24,0,.34-.11.09-.24,0-.34-.06,0,0-.02-.02-.02-.02-.69-.67-1.43-1.63-2.04-2.38-1.04-1.28-1.97-2.38-3.16-3.51-.01-.01-.02-.02-.03-.03-.01,0-.02-.02-.03-.03-1.19-1.14-2.46-2.22-3.7-3.31-.24-.22-.48-.43-.74-.63-.14-.11-.56-.44-.73-.52-1.27.85-3.06,2.17-5.33,4.16.14.1.26.2.33.26.59.48,1.18,1.03,1.74,1.55,0,0,0,.01,0,.01.01.01.02.01.02.02.54.53,1.1,1.07,1.63,1.61.19.2.78.73.55,1.05-.27.32-.92-.2-1.15-.35-.59-.42-1.26-1.02-1.78-1.52,0,0,0-.01,0-.01-.01,0-.02-.01-.02-.02-.54-.53-1.11-1.11-1.61-1.68-.07-.08-.2-.22-.32-.37-1.15,1.03-2.42,2.22-3.8,3.59-.05.06-.18.22-.35.44.06.06.11.12.17.18.51.55.96,1.05,1.51,1.57h0ZM547.61,1076.49c4.46,4.11,8.82,7.97,12.85,11.33,7.17,5.97,12.27,11.7,16.01,16.96.84.89,1.67,1.8,2.46,2.71.02.02.03.04.05.06.02.02.04.04.05.06,1.85,2.11,3.69,4.41,5.29,6.71.63.92,1.29,1.89,1.82,2.87.08.12.4.65.24.77-.18.12-.59-.34-.7-.44h-.01c-.72-.85-1.41-1.79-2.09-2.66-1.08-1.4-2.17-2.75-3.29-4.09,3.07,5.37,4.82,10.05,6.2,13.74,1.14,3.06,2.02,5.41,3.16,6.82,1.55,1.9,4.89,2.55,8.57,2.55.13,0,.26,0,.39,0-.5-.25-1.04-.54-1.45-.83,0,0-.01,0-.01,0,0,0-.01,0-.02-.01-.59-.42-1.24-1.07-1.72-1.6-.18-.2-1.18-1.23-.91-1.54.3-.26,1.34.71,1.55.89.58.49,1.1.93,1.72,1.38,0,0,.01,0,.01,0,0,0,.01.01.02.01.59.41,1.17.76,1.77,1.15.11.07.44.27.73.5,4.15-.25,8.33-1.17,10.69-1.97-.26-.24-.46-.43-.52-.48-1.55-1.4-3.1-2.83-4.62-4.26-.01-.01-.03-.03-.04-.04-.02-.01-.03-.02-.04-.04-1.52-1.43-3.08-2.92-4.53-4.42-.17-.17-2.16-2.14-1.85-2.46.34-.27,2.27,1.61,2.48,1.8,1.56,1.41,3.11,2.85,4.64,4.29.01.01.03.03.04.04.02.01.03.02.05.04,1.52,1.42,3.07,2.9,4.51,4.4.08.08.41.41.77.8.3-.13.54-.24.72-.35,1.31-.81,2.84-3.02,3.77-5.35.77-1.93,1.12-3.9.53-5.08-.67-1.33-9.69-10.22-20.4-20.44-12.4-11.82-27.06-25.37-33.76-31.12-1.23-1.06-2.46-2.13-3.67-3.22l-.67.62c1.18,1.17,2.32,2.39,3.5,3.69.29.33,5.46,5.94,5.28,6.29-.36.36-5.7-5.41-5.95-5.67-1.22-1.28-2.37-2.48-3.56-3.64l-7.86,7.25c1.52,1.36,3.05,2.7,4.58,4.04,0,0,.01.01.02.02.64.55,1.3,1.11,1.92,1.68.05.05.58.5.59.54.13.11.28.2.25.38-.04.22-.39.06-.5,0-.25-.09-.51-.25-.74-.39-.72-.43-1.44-.99-2.1-1.51,0,0-.01-.01-.02-.02-1.62-1.27-3.23-2.65-4.79-4.02l-1.4,1.29h0ZM458.28,1028.57c5.39-2.06,11.84-5.12,18.07-9.5.02-.02.05-.03.07-.05.3-.23,2.12-1.67,3.56-3.41.13.21.27.42.43.62l.03.03s0,0,.01.01c0,0,0,0,0,.01.34.4.9.92,1.33,1.23.24.17.64.52.92.26.27-.27-.12-.71-.29-.92-.37-.43-.76-.82-1.12-1.27,0,0,0,0-.01,0,0,0,0,0,0-.01,0,0-.02-.02-.02-.03-.23-.24-.42-.52-.59-.82.18-.26.35-.53.5-.8.53-.95,2.79-3.08,5.8-5.68.13-.11.26-.22.39-.33l.07.13s.56.68.98.26c.18-.18.18-.34.08-.57l-.21-.36-.13-.13c3.04-2.57,6.62-5.44,9.93-8.02.08.1.17.19.23.25h0s0,.01,0,.01c.16.16.51.46.7.58.24.15.42.19.63-.02.21-.21.17-.38.02-.63-.12-.19-.41-.54-.58-.7h0s0-.01,0-.01c-.04-.04-.09-.09-.15-.14.57-.44,1.13-.87,1.67-1.29.28-.15,2-.92,3.64.72,1.05,1.05,3.31,3.43,5.53,5.78,2.76,2.93,5.48,5.85,5.8,6.25.24.29.42,1.04.06,2.1-.24.73-.74,1.57-1.64,2.48-.66-.5-1.18-.8-1.65-1.02.64-.52,1.31-1.14,1.76-1.74.15-.2.84-1.15.43-1.38-.32-.16-.89.56-1.12.78-.73.71-1.41,1.24-2.21,1.85,0,0-.01.01-.02.02,0,0-.02,0-.02.02-.77.58-1.67,1.22-2.37,1.87-.06.05-.18.16-.31.3-.49.34-1.04.73-1.64,1.19-.03-.03-.05-.05-.06-.07h0s0-.01,0-.01c-.21-.22-.64-.56-.91-.68-.28-.12-.54-.17-.67.15-.11.26-.02.4.16.61.22.23.42.43.64.67-.79.62-1.66,1.35-2.61,2.18-.18-.22-.4-.46-.57-.65h0s0-.01,0-.01c-.24-.23-.57-.53-.84-.72-.24-.16-.46-.27-.69-.04-.23.23-.12.45.04.69.19.27.49.6.72.84,0,0,0,0,0,0,0,0,0,0,0,0,.18.17.4.37.61.54-1.13,1.01-2.35,2.17-3.68,3.49-.02.02-.04.04-.06.07h0s-.37.46-.8,1.07c-.17.09-.34.23-.45.32-.43.35-.89.77-1.3,1.15,0,0,0,0,0,0,0,0-.01,0-.02.01-.4.39-.84.82-1.23,1.22-.19.21-.64.64-.4.94.26.29.76-.1,1-.25.33-.23.72-.54,1.07-.84-.01.09-.01.18,0,.25.1.44.53,1.03.91,1.48-.59.46-1.4,1.08-1.74,1.28-.46.26-2.18.47-2.18.47-.27.03-.49.2-.61.42-1.93,3.3-3.35,9.22-4.34,15.42-.5,3.13-.88,6.36-1.15,9.37-.56-.2-1.13-.42-1.7-.67.07-.51.08-1.08.11-1.3.31-2.91.68-5.78,1.08-8.68.06-.4.12-.81.17-1.21,0-.04,0-.07.01-.11,0-.03.01-.07.02-.1.41-2.85.8-5.73,1.38-8.55.01-.07.11-.48.1-.53.1-.25.66-1.92.39-2.17-.38-.27-.91,1.49-1.07,1.79-.12.12-.25.53-.3.69-.72,2.48-1.19,6.02-1.57,8.63,0,.03,0,.07-.01.1,0,.03-.01.07-.02.11-.06.4-.11.81-.16,1.21-.37,2.86-.77,5.88-.93,8.76,0,.11-.04.53-.04.99-12.01-5.8-24.06-22.3-26.82-26.23h0ZM479.19,1042.07v.02s-.02.03-.03.04c-.46,1.01-.92,2.19-1.21,3.26-.06.23-.54,1.79-.13,1.91.39.08.89-1.36.99-1.61.44-1.05.87-2.07,1.34-3.11,0,0,0-.02,0-.02,0-.02.01-.03.02-.04.46-1.02.96-2.08,1.37-3.12.1-.25.72-1.65.34-1.85-.39-.14-1.04,1.23-1.17,1.46-.53.97-1.07,2.05-1.53,3.06h0ZM475.38,1033.8s-.01,0,.02,0h0s-.02,0-.02,0h0ZM474.71,1033.89c.23.15.39.06.6-.07l.07-.02c.07-.05.62-.32.14-.72-.19-.16-.36-.17-.42-.22-.03-.05.15-.15-.08-.08h0c-.11-.05-.84.76-.31,1.11h0ZM471.4,1036.37c-.21.16-.45.34-.34.63.12.31.45.26.72.2.26-.06.65-.25.85-.43,0,0,0,0,0,0h0c.16-.15.42-.5.53-.68.14-.24.27-.49.05-.71-.23-.23-.5-.07-.72.09-.2.15-.38.32-.58.48h0s0,0,0,0c-.19.18-.31.26-.52.42h0ZM503.06,1014.66l.27.07c.2-.03.77-.71.29-.99h0s-.27-.07-.27-.07c-.23.04-.54.57-.47.78l.19.21h0ZM501.13,1002.32h0s0,0,0,0c.08.08.33.27.43.3.22.08.35,0,.5-.15.15-.15.24-.28.15-.5-.04-.09-.23-.35-.3-.43h0c-.08-.08-.33-.27-.43-.31-.21-.09-.35,0-.49.15-.15.15-.24.28-.15.5.04.09.23.35.3.43h0ZM489.66,1031.13c.02.16.22.25.35.32.12.06.32.18.45.12.07-.03.23-.23.27-.3h0s0,0,0,0c.04-.07.12-.32.12-.4-.02-.18-.22-.24-.37-.3-.1-.03-.35-.15-.45-.12-.06.02-.22.22-.25.28h0s0,0,0,0c-.04.07-.13.32-.12.39h0ZM456.67,1046.71c.35-.22.75-.48,1.1-.67.26-.13.48-.22.69.03.22.26.07.47-.14.7-.25.27-.75.65-1.06.85,0,0,0,0-.01,0,0,0,0,0,0,0-.24.15-.61.37-.92.51,2.71,3.32,5.63,6.76,8.38,9.74.11-.15.21-.28.26-.35.47-.64.91-1.26,1.36-1.91,0,0,0-.01.01-.02,0,0,0-.01.01-.02.43-.6.97-1.32,1.49-1.84.17-.18.88-.93,1.18-.64.27.28-.32,1-.47,1.22-.44.63-.87,1.26-1.31,1.89,0,0,0,.01-.01.01,0,0,0,.01,0,.01-.45.62-1.02,1.35-1.56,1.88-.07.06-.22.22-.39.36,1.93,2.07,3.76,3.89,5.37,5.27.91.78,1.81,1.48,2.68,2.08.04-.15.07-.29.11-.39h0v-.02c.08-.26.27-.73.41-.96.16-.24.31-.39.6-.27.28.12.29.3.26.59-.05.29-.15.68-.23.97h0v.02c-.06.18-.15.44-.25.67,1.74,1.13,3.37,1.93,4.85,2.48,1.43.54,2.69.85,3.75,1.03-.19-.44-.21-1.18-.17-1.64.05-1.16.21-2.37.37-3.52,0-.02,0-.03,0-.05h0s0-.03,0-.04c.26-1.67.67-3.47,1.02-5.14.07-.32.27-1.96.69-1.98.53,0,.24,1.9.21,2.13-.21,1.72-.59,3.43-.84,5.15v.02s0,.02,0,.02c0,0,0,.04,0,.05-.17,1.14-.34,2.28-.45,3.43-.02.38-.06.89.04,1.26v.03c.04.06.06.13.12.17.09.08.2.13.3.18.03.02.11.05.2.1,1.26.07,2.05-.07,2.25-.16.2-.09.42-.23.58-.39.04-.04.07-.07.09-.11-.26-.76-.23-5.73.27-11.94-13.79-4.53-28.34-24.85-30.78-28.37-5.48,1.99-9.61,2.9-10.83,3.16-.28.51-.8,1.52-.6,1.75.1.12.38.49.84,1.09.33.43.75.99,1.25,1.64h0c.52-.08.97-.2,1.46-.36h0s.01,0,.01,0c0,0,.01,0,.02,0,.7-.22,1.24-.46,1.9-.78.29-.13.68-.39.93-.12.28.31-.23.72-.45.89-.53.41-1.41.83-2.05,1.04,0,0-.01,0-.02,0,0,0-.01,0-.02,0h0c-.36.11-.73.2-1.1.25,1.91,2.48,4.63,5.97,7.64,9.68.3-.22.65-.45.95-.66,0,0,0,0,.01,0h0ZM474.84,1060.88l.25-.17-.1.08s.12-.09.14-.11c.18-.15.3-.19.53-.12.24.08.33.22.3.48-.02.2-.1.35-.19.46-.03.21-.13.36-.38.42-.24.05-.37-.02-.51-.22-.17-.25-.24-.57-.03-.81h0ZM470.2,1050.63h0s0,0,0,0c-.09.09-.3.36-.35.47-.1.22-.03.36.13.52.16.16.29.23.52.13.11-.05.38-.26.47-.35h0s0,0,0,0c.09-.09.3-.37.35-.47.1-.23.03-.36-.13-.52-.16-.16-.29-.23-.52-.13-.11.05-.38.26-.47.35h0ZM453.5,1034.75c-.09.09-.36.3-.47.35-.22.1-.36.03-.52-.13-.16-.16-.23-.29-.13-.52.05-.11.26-.38.35-.47h0s0,0,0,0c.09-.09.36-.3.47-.35.22-.1.36-.03.52.13.16.16.23.29.13.52-.05.11-.26.38-.35.47h0s0,0,0,0h0ZM525.73,1045.48c-.2-.21-2.16-2.17-1.88-2.52.36-.28,2.31,1.68,2.52,1.88,1.59,1.49,3.18,3.06,4.72,4.6.02.01.03.03.04.05.02.01.03.03.05.04,1.54,1.54,3.11,3.13,4.6,4.72.2.21,2.16,2.16,1.88,2.52-.36.28-2.31-1.68-2.52-1.88-1.59-1.49-3.18-3.06-4.72-4.6-.01-.01-.03-.03-.04-.04-.02-.01-.03-.03-.05-.04-1.54-1.54-3.11-3.13-4.6-4.72h0ZM588.77,1121.03c.01-.31.56-.58.82-.41l.26.33.11.41c-.01.3-.57.58-.82.41l-.26-.33-.11-.41h0ZM570.47,1088.35c.99.84,1.99,1.73,2.95,2.6.01,0,.02.02.03.03,0,0,.02.01.03.02.92.83,1.91,1.75,2.76,2.65.18.2,1.23,1.22.94,1.55-.32.28-1.36-.72-1.57-.89-.96-.81-1.93-1.67-2.86-2.51,0,0-.02-.02-.02-.03-.01,0-.02-.02-.03-.02-.95-.86-1.97-1.81-2.86-2.75-.18-.2-1.34-1.32-1.05-1.65.32-.28,1.47.82,1.68.99h0ZM579.62,1098.19c.16-.3.61-.15.86-.06.25.09.68.3.88.48h0s.01,0,.01,0c.17.15.45.5.57.69.14.23.35.54.12.77-.24.24-.56,0-.78-.15-.21-.16-.4-.34-.61-.5h0s0,0,0,0c-.21-.2-.4-.33-.62-.51-.2-.17-.57-.44-.41-.74h0ZM559.32,1083.3c.08-.17.17-.31.38-.32.08,0,.33.07.41.11h0s0,0,0,0c.07.04.28.2.33.26.12.17.05.33-.03.5-.08.16-.17.31-.38.32-.08,0-.33-.07-.4-.11h0s0,0,0,0c-.07-.04-.28-.2-.33-.26-.11-.17-.05-.33.03-.49h0ZM569.65,1079.31c-.05-.27-.05-.48.22-.61.28-.14.45.02.62.25.14.2.23.4.38.6h0s0,0,0,0c0,0,0,.02.01.03.04.04.09.16.15.18,0,0,.11.07.12.08.21.14.34.21.34.49,0,.32-.24.41-.53.4-.07,0-.29-.03-.33-.06-.27-.11-.45-.24-.62-.46-.01-.02-.03-.04-.04-.05h0s0-.02,0-.02c-.12-.19-.27-.61-.31-.83h0ZM588.92,1099.97c-.18-.18-2.85-2.82-2.53-3.14.35-.26,2.94,2.28,3.17,2.49,2.05,1.9,4.1,3.84,6.12,5.77.02.02.04.04.05.06.02.02.04.03.06.05,2,1.92,4.04,3.88,5.97,5.86.17.18,2.81,2.78,2.49,3.1-.35.26-2.9-2.24-3.13-2.44-2.04-1.89-4.07-3.81-6.08-5.73-.02-.02-.04-.04-.05-.05-.02-.02-.04-.04-.06-.05-2.02-1.93-4.06-3.9-6.01-5.9h0ZM595.59,1116.87c.15-.15.28-.24.5-.15.09.04.35.23.43.3,0,0,0,0,0,0h0c.08.08.27.33.3.43.09.22,0,.35-.15.5-.15.15-.28.23-.5.15-.09-.04-.35-.23-.43-.3h0s0,0,0,0c-.08-.08-.27-.33-.3-.43-.09-.21,0-.34.15-.49Z"/>
          <path class="cls-3" d="M589.72,1026.78c-1.17,1.08-2.26,2.17-3.33,3.34-.01.01-.03.03-.04.05-.01.01-.03.03-.04.04-.74.83-1.46,1.69-2.18,2.55-.7.79-1.4,1.48-2.15,2.22-.2.2-2.31,2.12-2,2.5.34.28,2.41-1.65,2.62-1.83.8-.7,1.59-1.43,2.31-2.22.73-.83,1.46-1.66,2.2-2.49.01-.01.03-.03.04-.05.01-.01.03-.03.04-.04,1.05-1.16,2.08-2.25,3.2-3.35.56-.55,1.04-1.09,1.52-1.69.01-.01.03-.03.04-.05.46.6.91,1.22.89,1.31-.07.34-1.09,1.35-1.09,1.36-.02.02-.04.05-.06.07-1.44,1.53-36.97,39.31-60.97,59.31-7.17,5.97-12.27,11.7-16.01,16.96-.84.89-1.66,1.8-2.46,2.71-.02.02-.03.04-.05.06-.02.02-.04.04-.05.06-1.85,2.11-3.69,4.41-5.29,6.71-.63.92-1.29,1.89-1.82,2.87-.08.12-.4.65-.24.77.18.12.59-.34.69-.44h.01c.72-.85,1.41-1.79,2.09-2.66,1.08-1.4,2.17-2.75,3.29-4.09-3.07,5.37-4.82,10.05-6.2,13.74-1.14,3.06-2.02,5.41-3.16,6.82-1.55,1.9-4.89,2.55-8.57,2.55-.13,0-.26,0-.39,0,.5-.25,1.04-.54,1.45-.83,0,0,0,0,.01-.01,0,0,.01,0,.01,0,.59-.42,1.25-1.07,1.73-1.61.18-.2,1.18-1.23.91-1.54-.3-.26-1.34.71-1.55.89-.58.49-1.1.93-1.72,1.38,0,0,0,0,0,0,0,0-.01.01-.02.01-.59.41-1.17.76-1.77,1.15-.11.07-.44.27-.72.5-4.15-.24-8.33-1.17-10.69-1.97.26-.24.46-.42.52-.48,1.55-1.4,3.1-2.83,4.61-4.26.02-.01.03-.03.04-.04.02-.01.03-.02.04-.04,1.52-1.43,3.08-2.92,4.53-4.42.17-.17,2.17-2.14,1.85-2.46-.34-.27-2.27,1.61-2.49,1.8-1.56,1.41-3.11,2.85-4.64,4.29-.01.01-.03.03-.04.04-.02.01-.03.02-.05.04-1.51,1.42-3.07,2.9-4.51,4.4-.08.08-.41.41-.77.8-.3-.13-.54-.24-.72-.35-1.31-.81-2.84-3.02-3.77-5.35-.77-1.93-1.12-3.9-.53-5.08.67-1.33,9.68-10.22,20.4-20.44,12.4-11.82,27.06-25.37,33.76-31.12,6.26-5.37,12.28-11.13,18.16-17.33,5.88-6.2,11.6-12.82,17.29-19.91,5.67-7.07,9.2-11.13,11.56-13.52,2-2.03,3.1-2.82,3.94-3.25.24.13.61.34,1.11.65-.16.09-.31.19-.48.3-.28.2-.55.41-.82.63-1.27,1.05-2.62,2.13-3.82,3.26-.01,0-.02.02-.03.03-.01,0-.02.02-.03.03-1.17,1.11-2.22,2.43-3.14,3.74-.56.81-1.24,1.79-1.68,2.67h0c-.05.1-.11.24,0,.34.11.09.24,0,.34-.06,0,0,.01-.02.01-.02.69-.67,1.43-1.63,2.04-2.38,1.04-1.28,1.97-2.38,3.16-3.51l.03-.03s.02-.02.03-.03c1.19-1.14,2.47-2.22,3.71-3.31.24-.22.48-.43.73-.63.14-.11.56-.44.73-.52,1.27.85,3.06,2.17,5.33,4.16-.14.1-.26.2-.33.26-.59.48-1.18,1.03-1.74,1.55,0,0,0,.01-.01.02,0,0-.01,0-.02.01-.54.53-1.1,1.07-1.63,1.61-.19.2-.78.73-.55,1.05.27.32.92-.2,1.15-.35.59-.42,1.26-1.02,1.78-1.52,0,0,0-.01.01-.02,0,0,.01,0,.02-.01.54-.53,1.11-1.11,1.61-1.68.07-.08.2-.22.32-.37,1.15,1.03,2.42,2.22,3.79,3.59.05.06.18.22.35.44-.06.06-.11.12-.17.18-.51.55-.96,1.05-1.51,1.57h0ZM632.91,1028.57c-5.39-2.06-11.84-5.12-18.07-9.5-.02-.02-.05-.03-.07-.05-.3-.23-2.12-1.67-3.56-3.41-.13.21-.27.42-.43.62,0,0-.02.03-.03.03,0,0,0,0,0,0,0,0,0,.01,0,.01-.34.41-.91.92-1.33,1.23-.24.17-.64.52-.92.26-.27-.27.12-.71.29-.92.37-.43.76-.82,1.12-1.27,0,0,0,0,.01,0h0s.02-.03.02-.04c.23-.24.42-.52.59-.82-.18-.26-.35-.53-.5-.8-.53-.95-2.79-3.08-5.8-5.68-.13-.11-.26-.22-.39-.33l-.06.13s-.56.68-.98.26c-.18-.18-.18-.34-.08-.57l.21-.36.13-.13c-3.04-2.57-6.62-5.44-9.93-8.02-.09.1-.17.19-.23.25h0s0,.01,0,.01c-.16.16-.51.46-.7.58-.24.15-.42.19-.63-.02-.21-.21-.17-.38-.02-.63.12-.19.42-.54.58-.7,0,0,0,0,0,0h0c.04-.05.09-.1.15-.15-.57-.44-1.13-.87-1.67-1.29-.28-.15-2-.92-3.64.72-1.05,1.05-3.31,3.42-5.53,5.78-2.76,2.93-5.48,5.85-5.8,6.25-.24.29-.42,1.04-.06,2.1.24.73.74,1.57,1.64,2.48.66-.5,1.18-.8,1.65-1.02-.64-.52-1.31-1.14-1.76-1.74-.15-.2-.83-1.15-.43-1.38.32-.16.89.56,1.12.78.72.71,1.41,1.24,2.21,1.85,0,0,.01.01.02.02,0,0,.02,0,.02.02.77.58,1.67,1.22,2.36,1.87.06.05.18.16.31.3.49.34,1.03.73,1.64,1.19.03-.03.05-.05.06-.07,0,0,0,0,0,0,0,0,0,0,0,0,.21-.22.64-.56.91-.68.28-.12.54-.17.67.15.11.26.02.4-.16.61-.22.23-.42.43-.64.67.79.62,1.66,1.35,2.61,2.18.18-.22.4-.46.58-.65,0,0,0,0,0,0,0,0,0,0,0,0,.24-.23.57-.53.84-.72.24-.16.46-.27.69-.04.23.23.12.45-.04.69-.19.27-.49.6-.71.84h0s0,.01,0,.01c-.18.17-.4.37-.61.54,1.13,1.01,2.35,2.17,3.68,3.49.02.02.04.04.06.07h0s.37.46.8,1.07c.17.09.34.23.45.32.44.35.89.77,1.3,1.15,0,0,0,0,0,0,0,0,.01,0,.02.01.4.39.84.82,1.23,1.22.19.21.64.64.4.94-.26.29-.76-.1-1-.25-.33-.23-.73-.54-1.07-.84.01.09,0,.18,0,.25-.1.44-.53,1.03-.91,1.48.59.46,1.4,1.08,1.74,1.28.45.26,2.18.47,2.18.47.27.03.49.2.61.42,1.93,3.3,3.35,9.22,4.34,15.42.5,3.13.88,6.36,1.15,9.37.56-.2,1.13-.42,1.7-.67-.07-.51-.09-1.08-.11-1.3-.31-2.91-.67-5.78-1.08-8.68-.06-.4-.12-.81-.17-1.21,0-.04,0-.07-.01-.11,0-.03-.01-.07-.02-.1-.4-2.85-.8-5.73-1.38-8.55-.01-.07-.11-.48-.1-.53-.1-.25-.66-1.92-.38-2.17.38-.27.91,1.49,1.07,1.79.12.12.25.53.3.69.72,2.48,1.19,6.02,1.57,8.63,0,.03,0,.07.01.1,0,.03.01.07.02.11.06.4.11.81.17,1.21.38,2.86.77,5.88.93,8.76,0,.11.04.53.04.99,12.01-5.8,24.06-22.3,26.82-26.23h0ZM611.99,1042.07s.01.02.01.02c0,.02.01.03.02.04.46,1.01.91,2.19,1.21,3.26.06.23.54,1.79.13,1.91-.39.08-.89-1.36-.99-1.61-.44-1.05-.87-2.07-1.34-3.11,0,0,0-.02,0-.02,0-.02-.01-.03-.01-.03-.46-1.03-.96-2.09-1.37-3.13-.1-.25-.72-1.65-.34-1.85.39-.14,1.04,1.23,1.17,1.46.53.97,1.07,2.05,1.53,3.06h0ZM615.8,1033.8s.01,0-.02,0h0s.02,0,.02,0h0ZM616.47,1033.89c-.23.15-.38.06-.6-.07l-.07-.02c-.07-.05-.62-.32-.14-.72.19-.16.36-.17.42-.22.03-.05-.15-.15.08-.08,0,0,0,0,0,0,.11-.05.84.76.31,1.1h0ZM619.79,1036.37c.21.16.45.34.34.63-.12.31-.45.26-.72.2-.26-.06-.65-.25-.85-.43h0s0,0,0,0c-.16-.15-.42-.49-.53-.68-.14-.24-.27-.49-.05-.71.23-.23.49-.07.72.09.2.15.38.32.58.48h0s0,0,0,0c.19.18.31.26.52.41h0ZM588.12,1014.66l-.27.07c-.2-.03-.77-.71-.28-.99h0s.27-.07.27-.07c.23.04.54.57.47.78l-.19.21h0ZM590.06,1002.32h0s0,0,0,0c-.08.08-.33.27-.43.3-.21.08-.34,0-.49-.15-.15-.15-.24-.28-.15-.5.04-.09.23-.35.3-.43h0s0,0,0,0c.08-.08.33-.27.43-.3.21-.09.34,0,.49.15.15.15.24.28.15.5-.04.09-.23.35-.3.43h0ZM601.52,1031.13c-.02.16-.22.25-.35.32-.12.06-.32.18-.45.12-.07-.03-.23-.23-.27-.3h0s0,0,0,0c-.04-.07-.13-.32-.12-.4.03-.18.22-.24.37-.3.1-.03.36-.15.45-.12.06.02.22.22.25.28h0s0,0,0,0c.04.07.13.31.12.39h0ZM634.51,1046.71c-.34-.22-.75-.48-1.1-.67-.26-.13-.48-.22-.69.03-.22.26-.07.47.14.7.25.27.75.65,1.06.85,0,0,0,0,0,0,0,0,0,0,.01,0,.23.15.6.37.92.51-2.71,3.32-5.63,6.76-8.38,9.74-.11-.15-.21-.28-.26-.35-.47-.64-.91-1.26-1.36-1.91,0,0,0-.01-.01-.02,0,0,0-.01-.01-.02-.43-.6-.97-1.32-1.49-1.84-.17-.18-.88-.93-1.18-.64-.27.28.32,1,.47,1.22.44.63.87,1.26,1.31,1.89,0,0,0,0,.01.01,0,0,0,.01,0,.01.45.62,1.02,1.35,1.56,1.88.07.06.22.22.39.36-1.93,2.07-3.76,3.89-5.37,5.27-.91.79-1.81,1.48-2.68,2.08-.04-.15-.07-.29-.11-.39h0v-.02c-.08-.26-.27-.73-.41-.96-.16-.24-.31-.39-.6-.27-.28.12-.3.3-.26.59.05.29.15.68.23.97h0v.02c.06.18.15.44.25.67-1.74,1.13-3.37,1.93-4.85,2.48-1.43.54-2.69.85-3.75,1.03.19-.44.21-1.18.17-1.64-.05-1.16-.21-2.37-.37-3.52v-.05s-.01,0-.01,0v-.04c-.26-1.67-.68-3.47-1.02-5.14-.07-.32-.27-1.97-.69-1.99-.53,0-.24,1.9-.21,2.13.21,1.72.59,3.43.84,5.15v.02s0,.02,0,.02v.05c.17,1.14.35,2.28.46,3.43.03.38.06.89-.04,1.26v.03c-.04.06-.06.13-.13.17-.09.08-.2.13-.3.18-.03.02-.11.05-.2.1-1.26.07-2.05-.07-2.25-.16-.2-.09-.42-.23-.58-.39-.04-.04-.07-.07-.09-.11.26-.76.23-5.73-.27-11.94,13.79-4.53,28.34-24.84,30.79-28.37,5.48,1.99,9.61,2.9,10.83,3.16.28.51.79,1.52.6,1.75-.1.12-.38.49-.84,1.09-.33.43-.75.99-1.25,1.64h0c-.52-.08-.97-.2-1.46-.36h0s-.01,0-.01,0c0,0-.01,0-.02,0-.7-.22-1.24-.46-1.9-.78-.29-.13-.68-.39-.93-.12-.28.31.23.72.45.89.53.41,1.4.83,2.04,1.04,0,0,.01,0,.02,0,0,0,.01,0,.01,0h0c.36.11.73.2,1.1.25-1.91,2.48-4.63,5.97-7.64,9.68-.3-.23-.65-.45-.95-.66h-.01s0-.01,0-.01h0ZM616.34,1060.88l-.24-.17.1.08s-.11-.09-.14-.11c-.18-.15-.3-.19-.53-.12-.25.08-.33.22-.3.48.02.2.1.35.19.46.03.21.13.36.38.42.24.05.37-.02.51-.22.17-.25.24-.57.03-.81h0ZM620.98,1050.63h0s0,0,0,0c.09.09.3.36.35.47.1.22.03.36-.13.52-.16.16-.29.23-.52.13-.11-.05-.38-.26-.47-.35h0s0,0,0,0c-.09-.09-.3-.37-.35-.47-.1-.23-.03-.36.13-.52.16-.16.29-.23.52-.13.11.05.38.26.47.35h0ZM637.68,1034.75c.09.09.37.3.47.35.22.1.36.03.52-.13.16-.16.23-.29.13-.52-.05-.11-.26-.38-.35-.47h0s0,0,0,0c-.09-.09-.36-.3-.47-.35-.22-.1-.36-.03-.52.13-.16.16-.23.29-.13.52.05.11.26.38.35.47h0ZM565.46,1045.48c.19-.21,2.16-2.17,1.88-2.52-.36-.28-2.31,1.68-2.52,1.88-1.59,1.49-3.18,3.06-4.72,4.6-.01.01-.03.03-.04.05-.01.01-.03.03-.04.04-1.54,1.54-3.11,3.13-4.6,4.72-.2.21-2.16,2.16-1.88,2.52.36.28,2.31-1.68,2.52-1.88,1.59-1.49,3.18-3.06,4.72-4.6.01-.01.03-.03.04-.04.02-.01.03-.03.05-.04,1.54-1.54,3.11-3.13,4.6-4.72h0ZM542.46,1073.51c-1.87,1.69-3.75,3.34-5.65,5,0,0-.01.01-.02.02-.64.55-1.3,1.11-1.92,1.68-.05.05-.58.5-.59.54-.13.11-.28.2-.25.38.04.22.39.06.5,0,.25-.09.51-.25.74-.39.72-.43,1.44-.99,2.1-1.51,0,0,.01-.01.02-.02,1.97-1.54,3.91-3.24,5.79-4.9.15-.13.3-.27.45-.4.02-.02.05-.05.07-.07.03-.02.05-.04.08-.07,2.26-2.06,4.71-4.31,6.76-6.58.14-.16,1.64-1.76,1.09-2.04-.39-.19-1.49,1.15-1.76,1.42-2.22,2.2-4.5,4.3-6.82,6.4-.03.02-.05.05-.07.07-.03.02-.05.04-.08.06-.15.14-.3.27-.45.41h0ZM502.41,1121.03c-.01-.31-.56-.58-.82-.41l-.26.33-.11.41c.01.3.56.58.82.41l.26-.33.11-.41h0ZM520.72,1088.35c-.99.84-1.99,1.73-2.96,2.6,0,0-.02.02-.03.03,0,0-.02.01-.03.02-.92.83-1.92,1.75-2.76,2.65-.18.2-1.23,1.22-.94,1.55.32.28,1.36-.72,1.57-.89.96-.81,1.93-1.67,2.86-2.51,0,0,.02-.02.02-.02.01,0,.02-.02.03-.02.96-.86,1.97-1.81,2.86-2.75.18-.2,1.34-1.32,1.05-1.65-.32-.28-1.47.82-1.68.99h0ZM511.57,1098.19c-.16-.3-.61-.15-.85-.06-.25.09-.68.3-.88.48h0s0,0,0,0c-.18.15-.45.5-.57.69-.14.23-.35.54-.12.77.24.24.56,0,.78-.15.21-.16.4-.34.61-.5h0s0,0,0,0c.21-.2.4-.33.63-.51.2-.17.57-.44.41-.74h0ZM531.87,1083.3c-.08-.17-.17-.31-.38-.32-.08,0-.33.07-.4.11h0s0,0,0,0c-.07.04-.28.2-.33.26-.12.17-.05.33.03.5.08.16.17.31.38.32.08,0,.33-.07.4-.11h0s0,0,0,0c.08-.04.28-.2.33-.26.12-.17.05-.33-.03-.49h0ZM521.53,1079.31c.05-.27.05-.48-.22-.61-.28-.14-.45.02-.62.25-.14.2-.23.4-.38.6h0s0,0,0,0c0,0,0,.02-.01.03-.04.05-.09.16-.15.18,0,0-.11.07-.12.08-.21.14-.34.21-.34.49,0,.32.24.41.53.4.06,0,.29-.03.33-.06.27-.11.45-.24.62-.46.01-.02.03-.04.04-.05h0s0-.01,0-.01c.12-.19.27-.61.31-.83h0ZM542.95,1059.13c4.26-3.88,8.28-8.16,12.21-12.38.31-.33,5.61-5.84,5.41-6.23-.34-.34-5.82,5.34-6.07,5.6-4.05,4.14-7.99,8.3-12.28,12.21-.04.04-.08.07-.12.11-.04.03-.08.07-.12.1-1.65,1.5-3.3,2.9-5.04,4.29-2.88,2.32-5.18,4.68-7.65,7.41-.29.33-5.46,5.94-5.28,6.29.36.36,5.7-5.41,5.95-5.67,2.5-2.64,4.74-4.93,7.62-7.21,1.77-1.38,3.46-2.8,5.13-4.31.04-.04.08-.07.12-.11.04-.04.08-.07.12-.11h0ZM502.27,1099.97c.18-.18,2.85-2.82,2.53-3.14-.35-.26-2.94,2.28-3.17,2.49-2.05,1.9-4.1,3.84-6.12,5.77-.02.02-.04.04-.06.06-.02.02-.04.03-.06.05-2.01,1.92-4.04,3.88-5.97,5.86-.18.18-2.81,2.78-2.49,3.1.35.26,2.9-2.24,3.13-2.44,2.04-1.89,4.07-3.81,6.08-5.73.02-.02.04-.04.05-.05.02-.02.04-.04.06-.05,2.02-1.93,4.06-3.9,6.01-5.9h0ZM495.59,1116.87c-.15-.15-.28-.24-.5-.15-.09.04-.35.23-.43.3h0s0,0,0,0c-.08.08-.27.33-.3.42-.08.22,0,.35.15.5.15.15.28.23.5.15.09-.04.35-.23.43-.3h0s0,0,0,0c.08-.08.27-.33.3-.43.08-.21,0-.34-.15-.49Z"/>
        </g>
        <g>
          <path class="cls-2" d="M594.01,1048.63c-1.57-1.84-3.36-5.04-5.2-9.33-1.41,1.46-3.09,3.2-4.88,5.04,1.73,3.74,3.42,6.56,5.1,8.57,1.25,1.46,1.03,5.31.87,8.35,0,.49-.05.92-.05,1.36-.05,1.09-.11,2.12-.05,3.09v1.68c-.05,4.01-.81,8.08-2.17,11.38-.6,1.52-1.03,3.04-1.41,4.5,1.79,1.63,3.58,3.31,5.42,5.04.22-.71.38-1.46.6-2.17.43-1.68.87-3.42,1.46-4.88,1.9-4.66,2.82-10.3,2.66-15.83-.05-1.08,0-2.39.11-3.79.22-4.45.49-9.49-2.44-13.01ZM501.79,1067.88c-.11-.22-.22-.38-.27-.54-.7-1.36-.49-2.39.22-4.66.05-.16.11-.38.16-.6l.27-.98c.49-1.63.6-3.36.65-5.26.11-2.6.22-5.37,1.57-7.16,1.41-1.9,1.95-3.58,2.28-4.93-2.06-2.11-3.85-3.96-5.37-5.58-.54,1.19-.7,2.33-.87,3.25-.22,1.19-.33,2.06-1.3,3.31-2.55,3.47-2.71,7.59-2.87,10.9-.05,1.41-.11,2.77-.33,3.58l-.33.92c-.92,3.09-2.11,6.94.7,11.33,1.52,2.28,1.9,5.1,1.36,10.3-.27,2.77.76,4.83,2.06,6.45,1.57-1.57,3.2-3.04,4.77-4.5-.27-.49-.38-.87-.33-1.3.6-5.69.38-10.3-2.39-14.53ZM558.12,1016.27c-2.28-.22-4.61-.49-6.89-1.09-5.26-1.41-7.97-.7-11.11.16-1.63.43-3.52.92-6.23,1.25-3.9.43-7.26,1.14-10.19,2.66,1.3,1.46,2.77,3.2,4.39,5.2,1.73-.6,3.85-1.03,6.56-1.36,3.2-.38,5.42-.98,7.16-1.46,2.77-.7,4.17-1.08,7.75-.16,2.71.76,5.31,1.03,7.86,1.3,2.22.27,4.28.49,6.13,1.03,1.74-2.06,3.25-3.85,4.55-5.31-3.25-1.46-6.61-1.84-9.98-2.22ZM572.11,1107.89c-.49-.7-1.03-1.41-1.57-2.12-.65-.87-1.3-1.68-2.06-2.55-.76.65-1.46,1.25-2.17,1.9-.76.6-1.46,1.25-2.17,1.9-3.52,3.2-7.75,2.6-12.63,1.9-.7-.11-1.46-.22-2.22-.33-1.25-.16-2.49-.27-3.74-.27h-.49c-.87,0-1.79.11-2.6.27-5.91,1.19-11.01.38-16.54-2.76-.76-.38-1.52-.87-2.28-1.36l-1.03-.65c-.11-.05-.22-.11-.27-.16-.7.87-1.36,1.68-2.01,2.55-.43.54-.87,1.14-1.25,1.68l-.49.54c-.11.11-.22.27-.33.38.27.16.49.33.76.49l1.03.65c7.81,5.1,15.34,6.72,23.64,5.04,1.9-.33,4.34,0,6.89.38,2.06.33,4.28.65,6.61.65,3.8,0,7.75-.87,11.39-4.17,1.25-1.14,2.6-2.33,3.96-3.47l-.43-.49Z"/>
          <path class="cls-2" d="M579.32,1054.38c-.65-.81-1.36-1.84-2.11-3.2-.22.27-.49.54-.76.81.7,1.25,1.41,2.28,2.06,3.09,1.36,1.63,1.19,4.66,1.03,7.37,0,.32-.05.7,0,1.03-.05.7-.11,1.41-.05,2.01v1.14c-.05,3.14-.6,6.23-1.63,8.89.27.27.6.54.87.81,0-.05.05-.11.05-.16,1.14-2.82,1.73-6.07,1.79-9.49v-1.25c-.05-.6,0-1.3.05-2.01-.05-.27,0-.6,0-.92.16-2.87.38-6.18-1.3-8.13ZM512.14,1062.4l.22-.7c.27-.98.33-2.12.33-3.36.11-2.06.22-4.44,1.52-6.23.11-.11.22-.27.27-.38l-.81-.81c-.05.16-.16.38-.33.54-1.52,2.06-1.63,4.61-1.73,6.83,0,1.19-.05,2.28-.33,3.09l-.22.71c-.11.49-.27.92-.38,1.36-.27,1.08-.43,2.11-.22,3.25.16.65.43,1.36.87,2.06,1.36,2.06,1.57,4.45,1.36,7.37.38-.38.81-.76,1.19-1.09.05-2.6-.27-4.88-1.63-6.89-.38-.54-.6-1.08-.7-1.57-.22-1.03-.05-2.01.22-3.04.11-.38.27-.76.38-1.14ZM554.49,1031.5c-1.73-.16-3.52-.38-5.31-.87-3.31-.87-4.88-.43-7.1.16-1.25.32-2.66.7-4.77.98-1.03.11-2.01.27-2.87.43.27.33.54.65.76.98.7-.16,1.46-.22,2.22-.33,2.22-.27,3.74-.7,4.93-1.03,2.11-.54,3.52-.92,6.56-.11,1.9.49,3.69.71,5.48.87.65.06,1.3.16,1.9.27.22-.32.49-.65.81-.98-.81-.16-1.73-.27-2.6-.38ZM562.08,1096.4l.11.22.05-.05c-.05-.05-.11-.11-.16-.16ZM561.7,1095.64c-.05.05-.16.11-.22.16.16.22.38.43.6.6l-.38-.76ZM546.79,1098.35c-.22,0-.43-.05-.6,0l-.16,1.08c.33-.05.7,0,1.03.05l-.27-1.14ZM529.66,1095.86c-.22.27-.49.49-.76.76.27.22.54.38.81.54l.43-1.03c-.16-.05-.33-.16-.49-.27Z"/>
          <path class="cls-2" d="M571.73,1056.77c-.27.27-.54.54-.81.76.98,1.25.87,3.47.76,5.53-.05.38-.05.76-.05,1.14,0,.43-.05.81,0,1.25v.6c0,1.19-.05,2.39-.27,3.52l.92.92c.33-1.41.43-2.87.43-4.39v-.71c-.05-.38,0-.81,0-1.3,0-.33,0-.65.05-.98.11-2.22.27-4.77-1.03-6.34ZM519.95,1067.39c-.33-.49-.49-.92-.54-1.36-.11-.6-.05-1.19.11-1.84.11-.38.22-.76.33-1.14l.22-.54c.22-.76.22-1.63.27-2.6,0-.7.05-1.46.16-2.17l-.87-.87c-.33.98-.33,2.01-.38,2.98-.05.92-.05,1.73-.27,2.33l-.16.54c-.11.43-.27.92-.38,1.36-.16.71-.22,1.36-.11,2.01.05.6.27,1.25.7,1.9.33.54.6,1.08.76,1.68.33-.27.6-.54.87-.81-.16-.49-.38-.98-.7-1.46ZM548.42,1038.44c-2.6-.7-3.85-.38-5.58.05-.7.22-1.52.43-2.55.6.27.33.54.65.87.92.76-.11,1.41-.27,1.95-.43,1.63-.43,2.71-.76,4.99-.11.7.16,1.41.33,2.11.43.27-.33.54-.65.87-1.03-.92-.05-1.79-.22-2.66-.43Z"/>
          <path class="cls-2" d="M564.68,1063.76c.27.27.6.49.87.81,0-.27,0-.54.05-.87,0-.27,0-.6.05-.92-.33.33-.65.65-.98.98ZM525.92,1063.11l-.05.22c-.16.43-.27.81-.33,1.25.33-.27.65-.6.98-.87l-.6-.6Z"/>
          <polygon class="cls-2" points="593.09 1062.35 593.04 1067.61 589.78 1067.39 580.57 1066.69 579.48 1066.63 572.7 1066.09 571.62 1066.04 566.85 1065.66 565.55 1065.6 565.55 1064.68 565.71 1064.68 571.62 1064.19 572.7 1064.08 579.54 1063.49 580.62 1063.43 589.84 1062.62 593.09 1062.35"/>
          <path class="cls-2" d="M525.54,1064.74c-.05.27-.11.54,0,.81l-1.19.11-4.93.38-1.08.05-6.78.49-1.08.11-8.95.65-3.69.27v-5.26l3.9.32,8.95.76,1.08.11,6.67.54,1.08.11,5.91.49.11.05Z"/>
          <path class="cls-2" d="M530.69,1094.93l-.54,1.19-.43,1.03-3.8,8.68-1.36,3.04-4.23-2.66c.65-.87,1.3-1.68,2.01-2.55,1.95-2.39,4.17-4.72,6.56-7.05.27-.27.54-.49.76-.76.33-.27.7-.6,1.03-.92Z"/>
          <polygon class="cls-2" points="550.15 1112.01 544.67 1111.63 545.05 1108.33 546.03 1099.43 546.19 1098.35 546.36 1096.72 546.79 1098.35 547.06 1099.49 549.28 1108.6 550.15 1112.01"/>
          <path class="cls-2" d="M570.54,1105.78l-2.77,2.39-1.46-3.04-4.12-8.51-.11-.22c.05.06.11.11.16.16,2.28,2.17,4.39,4.39,6.23,6.67.76.87,1.41,1.68,2.06,2.55Z"/>
        </g>
      </g>
      <g>
        <g>
          <rect class="cls-2" x="691.43" y="1031.52" width="135.49" height="5.55"/>
          <rect class="cls-2" x="691.43" y="1092.67" width="135.49" height="5.55"/>
        </g>
        <g>
          <rect class="cls-2" x="264.27" y="1031.52" width="135.49" height="5.55"/>
          <rect class="cls-2" x="264.27" y="1092.67" width="135.49" height="5.55"/>
        </g>
      </g>
      <g>
        <path class="cls-1" d="M263.22,913.75l-12.51,48.13s-3.53-.2-11.5-.2-11.6.2-11.6.2l-10.8-48.23c-.81-3.43-1.11-6.36-1.11-7.06-.1.5-.4,3.13-1.21,7.16l-10.09,48.13s-3.93-.2-11.7-.2-12.01.2-12.01.2l-12.11-48.13c-3.63-14.23-5.65-20.28-9.48-23.91,0,0,4.24.2,13.22.2,9.69,0,14.33-.2,14.33-.2-1.31.91-3.23,2.62-3.23,6.36,0,3.53,1.31,9.28,2.83,16.85l7.26,34.3c.5,2.52.91,5.25,1.01,5.95,0-.4.4-3.13,1.11-5.85l12.01-57.61s3.53.2,9.79.2,9.99-.2,9.99-.2l12.51,56.7c.61,2.72,1.31,6.86,1.31,6.86,0,0,.61-3.94,1.21-6.86l7.16-33.5c1.61-7.57,2.82-13.32,2.82-16.85,0-3.73-1.92-5.45-3.23-6.36,0,0,4.14.2,12.01.2s11.4-.2,11.4-.2c-3.73,3.63-5.75,9.68-9.38,23.91Z"/>
        <path class="cls-1" d="M333.25,963.08c-22.5,0-33.9-13.12-33.9-36.02,0-19.47,9.08-38.04,33.7-38.04,22.5,0,33.9,13.12,33.9,36.02,0,19.47-9.08,38.04-33.7,38.04ZM333.25,899.42c-10.19,0-14.83,8.27-14.83,26.84s4.54,26.43,14.63,26.43,14.83-8.27,14.83-26.84-4.54-26.43-14.63-26.43Z"/>
        <path class="cls-1" d="M454.63,962.48c-8.37,0-12.01-2.32-16.85-11.1l-5.45-9.58c-4.64-8.17-5.55-10.29-9.48-10.29-.91,0-1.51.1-1.51.1,0,24.31.5,24.82,2.52,28.55l.91,1.72s-3.63-.2-11.8-.2-11.91.2-11.91.2l.91-1.72c2.02-3.63,2.52-4.54,2.52-34.81s-.4-29.76-2.52-33.8l-.91-1.72s4.04.2,9.38.2c3.33,0,11.3-.2,14.63-.2,15.84,0,31.38.71,31.38,18.56,0,14.73-11.1,19.47-20.48,19.77,7.57,1.01,10.69,4.34,14.93,12.51l5.55,10.8c2.72,5.04,4.44,7.57,8.07,9.18,0,0-1.71,1.82-9.89,1.82ZM425.27,898.92c-2.62,0-3.93.2-3.93.2v23.2s1.21.2,4.34.2c1.82,0,3.93-.2,5.55-.71,4.24-1.01,7.26-4.34,7.26-11.2,0-9.79-5.15-11.7-13.22-11.7Z"/>
        <path class="cls-1" d="M544.73,905.88l-14.53,16.24,15.64,22.4c9.18,13.22,11.91,15.84,14.73,17.35,0,0-2.82-.1-12.71-.1h-11.1l-23.2-35.11c0,28.05.4,29.46,2.52,33.5l.91,1.72s-3.63-.2-12.21-.2-12.31.2-12.31.2l.91-1.72c2.02-3.83,2.52-4.54,2.52-34.81s-.4-29.76-2.52-33.8l-.91-1.72s3.43.2,12.21.2,12.31-.2,12.31-.2l-.91,1.72c-1.92,3.63-2.52,4.84-2.52,34.1l15.74-19.98c5.15-6.36,6.96-8.98,6.96-11.91,0-1.51-.61-2.92-2.12-3.93,0,0,3.63.2,12.91.2,10.29,0,13.72-.2,13.72-.2-2.32,1.51-6.56,5.25-16.04,16.04Z"/>
        <path class="cls-1" d="M606.79,962.48c-13.02,0-19.37-3.03-19.37-3.03,0,0,.2-2.32.2-7.87,0-6.05-.2-9.79-.2-9.79,3.53,5.14,8.37,10.09,18.16,10.09,6.76,0,12.21-1.51,12.21-7.97,0-5.04-3.23-6.86-8.07-9.48l-8.27-4.64c-7.87-4.34-14.12-9.79-14.12-20.18,0-13.62,8.98-20.38,25.83-20.38,12.01,0,18.26,2.93,18.26,2.93,0,0-.2,2.42-.2,8.17s.2,9.28.2,9.28c-4.04-5.85-9.08-9.89-17.05-9.89-6.56,0-10.8,1.82-10.8,7.06,0,4.74,3.43,6.36,8.88,9.38l7.16,3.93c8.78,4.74,14.53,9.99,14.53,21.09,0,16.65-12.01,21.29-27.34,21.29Z"/>
        <path class="cls-1" d="M722.82,961.67c-8.58,0-12.31.2-12.31.2l.91-1.72c1.92-3.63,2.52-4.54,2.52-29.26h-24.72c0,24.82.5,25.42,2.52,29.26l.91,1.72s-3.63-.2-12.21-.2-12.31.2-12.31.2l.91-1.72c2.02-3.83,2.52-4.54,2.52-34.81s-.4-29.76-2.52-33.8l-.91-1.72s3.53.2,12.31.2,12.21-.2,12.21-.2l-.91,1.72c-1.82,3.43-2.52,4.44-2.52,27.54h24.72c0-23.1-.5-23.91-2.52-27.54l-.91-1.72s3.53.2,12.31.2,12.21-.2,12.21-.2l-.91,1.72c-2.02,3.73-2.52,4.54-2.52,34.81s.4,29.76,2.52,33.8l.91,1.72s-3.63-.2-12.21-.2Z"/>
        <path class="cls-1" d="M803.14,963.08c-22.5,0-33.9-13.12-33.9-36.02,0-19.47,9.08-38.04,33.7-38.04,22.5,0,33.9,13.12,33.9,36.02,0,19.47-9.08,38.04-33.7,38.04ZM803.14,899.42c-10.19,0-14.83,8.27-14.83,26.84s4.54,26.43,14.63,26.43,14.83-8.27,14.83-26.84-4.54-26.43-14.63-26.43Z"/>
        <path class="cls-1" d="M899.3,935.64c-4.04,0-7.47-.6-7.47-.6,0,19.17.5,21.19,2.72,25.02l1.11,1.82s-3.63-.2-12.41-.2-12.31.2-12.31.2l.91-1.72c2.02-3.73,2.52-4.54,2.52-34.81s-.4-29.76-2.52-33.8l-.91-1.72s3.63.2,9.58.2c4.44,0,12.71-.3,16.04-.3,11.6,0,31.48.71,31.48,21.99s-16.14,23.91-28.75,23.91ZM896.07,899.02c-2.42,0-4.24.2-4.24.2v26.84s.91.2,4.74.2c12.61,0,13.12-8.88,13.12-14.22,0-11.7-7.77-13.02-13.62-13.02Z"/>
      </g>
      <g>
        <path class="cls-1" d="M210.75,841.43c-22.33,0-32.02-6.19-44.94-29.6l-14.53-25.56c-12.38-21.8-14.8-27.45-25.29-27.45-2.42,0-4.04.27-4.04.27,0,64.85,1.35,66.19,6.73,76.15l2.42,4.57s-9.69-.54-31.48-.54-31.75.54-31.75.54l2.42-4.57c5.38-9.69,6.73-12.11,6.73-92.83s-1.08-79.38-6.73-90.14l-2.42-4.57s10.76.54,25.02.54c8.88,0,30.14-.54,39.02-.54,42.25,0,83.68,1.88,83.68,49.51,0,39.29-29.6,51.93-54.62,52.74,20.18,2.69,28.52,11.57,39.82,33.37l14.8,28.79c7.26,13.45,11.84,20.18,21.53,24.49,0,0-4.57,4.84-26.37,4.84ZM132.45,671.91c-7,0-10.49.54-10.49.54v61.89s3.23.54,11.57.54c4.84,0,10.49-.54,14.8-1.88,11.3-2.69,19.37-11.57,19.37-29.87,0-26.1-13.72-31.21-35.25-31.21Z"/>
        <path class="cls-1" d="M408.78,829.32l-.54,10.23h-105.21c-14.53,0-20.72.27-20.72.27l2.42-4.57c5.38-9.95,6.73-12.11,6.73-92.83s-1.08-79.38-6.73-90.14l-2.42-4.57s5.92.27,20.45.27h102.79s-.27,5.92-.27,19.11c0,13.99.54,20.72.54,21.26-.27-.27-1.88-2.69-9.42-7.26-6.46-3.77-16.95-5.92-29.6-5.92h-28.52v54.62h22.06c12.65,0,23.14-1.35,29.6-5.11,7-4.04,9.15-6.46,9.69-7,0,.27-.81,7.8-.81,26.1,0,16.95.81,25.02.81,25.56-.27-.27-2.15-2.69-9.69-7.27-6.46-3.77-16.95-5.11-29.6-5.11h-22.06v55.43h25.83c33.37,0,37.67-7.8,47.63-22.33,0,0-1.35,10.76-2.96,39.29Z"/>
        <path class="cls-1" d="M596.32,688.32c-.27-.27-1.88-2.69-9.42-7.26-6.46-3.77-16.95-5.92-29.6-5.92h-28.25v58.66h21.8c12.65,0,23.14-1.35,29.6-5.11,7-4.04,9.15-6.46,9.69-7,0,.27-.81,7.8-.81,26.1,0,16.95.81,25.02.81,25.56-.27-.27-2.15-2.69-9.69-7.26-6.46-3.77-16.95-5.11-29.6-5.11h-21.8c0,58.93,1.35,63.77,7.27,74l2.96,4.84s-9.96-.54-33.37-.54-33.1.54-33.1.54l2.42-4.57c5.38-9.95,6.73-12.11,6.73-92.83s-1.08-79.38-6.73-90.14l-2.42-4.57s5.92.27,20.45.27h102.79s-.27,5.92-.27,19.11c0,13.99.54,20.72.54,21.26Z"/>
        <path class="cls-1" d="M787.89,839.28c-19.64,0-35.79.54-35.79.54,3.5-2.42,8.61-7,8.61-16.95,0-8.34-3.5-21.53-7.53-37.4l-2.96-11.3h-54.89l-2.96,11.3c-4.04,15.88-7.8,29.06-7.8,37.4,0,9.96,5.11,14.53,8.61,16.95,0,0-12.38-.54-30.41-.54s-29.06.54-29.06.54c9.96-9.69,14.8-26.37,25.56-63.77l31.75-112.21c.81-3.23,1.62-6.46,1.62-9.96s-1.35-5.11-1.88-5.65h79.38c0,.27-1.61,1.88-1.61,5.65,0,3.5.54,6.73,1.35,9.96l29.33,112.21c9.95,37.67,14.53,54.08,24.49,63.77,0,0-14.26-.54-35.79-.54ZM727.08,681.33c-2.96-11.57-4.04-17.76-4.31-19.64-.27,1.35-1.08,7-4.31,19.64l-16.41,65.65h41.44l-16.41-65.65Z"/>
        <path class="cls-1" d="M994,834.97c-13.99,4.31-29.06,4.84-53.01,4.84-9.69,0-30.14-.54-40.09-.54-17.76,0-26.37.54-26.37.54l2.42-4.57c5.38-9.95,6.73-12.11,6.73-92.83s-1.08-79.38-6.73-90.14l-2.42-4.57s9.15.54,23.41.54c8.88,0,28.79-.54,37.13-.54,44.13,0,86.1,1.88,86.1,46.01,0,34.17-27.98,44.13-45.47,46.28,25.83.81,51.66,12.11,51.66,46.55,0,30.14-17.76,43.86-33.37,48.43ZM939.38,671.91c-7,0-10.76.54-10.76.54v56.78s3.23.54,11.57.54c5.38,0,11.57-.81,16.41-2.15,10.23-2.96,17.76-11.57,17.76-27.44,0-23.68-14.26-28.25-34.98-28.25ZM942.33,753.98c-7.8,0-13.72.54-13.72.54v60s2.69.54,14.26.54c8.88,0,16.14-.81,21.26-3.23,8.34-3.23,15.34-10.49,15.34-27.99,0-24.22-15.07-29.87-37.13-29.87Z"/>
      </g>
      <g>
        <path class="cls-1" d="M729.7,1072.52c0,.07-.2,1.88-.24,3.73l-.03,1.85h-15.74c0-3.23.97-5.05,3.46-7.27l3.13-2.79c2.59-2.35,3.16-3.67,3.16-5.62,0-1.51-.54-3.67-3.84-3.67-2.96,0-3.83,1.18-5.25,3.19,0,0,.07-1.14.07-2.86,0-2.09-.07-2.76-.07-2.76,0,0,2.02-.97,6.43-.97,6.96,0,8.88,2.89,8.88,6.59,0,3.47-1.48,5.58-5.31,8.17l-2.25,1.55c-1.99,1.31-2.62,1.88-2.62,2.45h5.31c1.58,0,2.89-.27,3.7-.74.87-.5,1.14-.81,1.21-.87Z"/>
        <path class="cls-1" d="M747.35,1078.54c-7.03,0-9.65-4.54-9.65-11.54s2.59-11.61,9.82-11.61,9.69,4.51,9.69,11.5-2.62,11.64-9.85,11.64ZM747.49,1058.73c-1.62,0-2.52.77-3.03,2.39-.44,1.45-.61,3.57-.61,5.85,0,6.02.91,8.21,3.53,8.21,1.55,0,2.46-.67,2.96-2.09.54-1.45.67-3.67.67-6.16,0-6.02-.87-8.21-3.53-8.21Z"/>
        <path class="cls-1" d="M779.91,1072.52c0,.07-.2,1.88-.23,3.73l-.03,1.85h-15.74c0-3.23.98-5.05,3.47-7.27l3.13-2.79c2.59-2.35,3.16-3.67,3.16-5.62,0-1.51-.54-3.67-3.84-3.67-2.96,0-3.84,1.18-5.25,3.19,0,0,.07-1.14.07-2.86,0-2.09-.07-2.76-.07-2.76,0,0,2.02-.97,6.43-.97,6.96,0,8.88,2.89,8.88,6.59,0,3.47-1.48,5.58-5.31,8.17l-2.25,1.55c-1.98,1.31-2.62,1.88-2.62,2.45h5.31c1.58,0,2.89-.27,3.7-.74.87-.5,1.14-.81,1.21-.87Z"/>
        <path class="cls-1" d="M793.93,1080.36c-4.47,0-7.53-2.22-7.53-4.95,0,0,1.68,1.35,5.68,1.35,2.96,0,5.28-.91,5.28-3.9,0-2.19-.98-3.63-4.14-3.63-1.35,0-2.12.2-2.99.6,0,0,.07-.4.07-2.25s-.07-2.32-.07-2.32c.84.4,1.75.61,3.03.61,3.06,0,4.04-1.78,4.04-3.7,0-2.76-1.99-3.4-3.9-3.4-2.49,0-3.8,1.11-5.25,3.19,0,0,.07-1.14.07-2.89,0-2.09-.07-2.72-.07-2.72,0,0,1.98-.97,6.43-.97,5.79,0,8.64,2.29,8.64,5.95,0,4.37-3.36,5.72-6.12,6.09,2.83.13,6.29,1.48,6.29,5.95,0,6.69-6.56,7-9.45,7Z"/>
      </g>
    </g>
  </g>
</svg>